<svg width="1000" height="1000" viewBox="0 0 1000 1000" fill="none" xmlns="http://www.w3.org/2000/svg">
<rect width="1000" height="1000" rx="200" fill="#2B4BF2"/>
<path d="M375.586 550.525C375.586 550.525 401.995 514.881 419.336 506.764C471.685 482.252 482.334 471.6 506.837 419.235C514.954 401.889 550.587 375.471 550.587 375.471M448.503 623.465C448.503 623.465 484.136 597.046 492.253 579.701C516.756 527.338 527.405 516.686 579.753 492.175C597.093 484.055 623.503 448.41 623.503 448.41" stroke="white" stroke-width="50" stroke-linecap="square" stroke-linejoin="round"/>
<path d="M570.907 234.352C585.692 219.517 609.699 219.479 624.53 234.267L764.874 374.212C779.705 389 779.743 413.015 764.959 427.851L720.375 472.592C705.59 487.426 681.583 487.464 666.752 472.677L526.408 332.731C511.579 317.943 511.541 293.928 526.323 279.092L570.907 234.352Z" stroke="white" stroke-width="50"/>
<path d="M278.735 526.314C293.519 511.48 317.526 511.442 332.357 526.23L472.703 666.174C487.531 680.965 487.569 704.978 472.788 719.815L428.202 764.553C413.418 779.39 389.411 779.428 374.58 764.638L234.236 624.693C219.405 609.906 219.367 585.89 234.151 571.056L278.735 526.314Z" stroke="white" stroke-width="50"/>
<path d="M673.183 250.699C728.086 178.743 824.917 262.003 749.174 325.838M248.528 674.338C179.122 732.42 266.603 825.459 326.966 746.916" stroke="white" stroke-width="50" stroke-linecap="round" stroke-linejoin="round"/>
</svg>
